<svg xmlns="http://www.w3.org/2000/svg" width="24" height="24" viewBox="0 0 24 24" fill="currentColor" aria-hidden="true">
  <path d="M12 1C5.923 1 1 5.923 1 12c0 4.867 3.149 8.979 7.521 10.436.55.1.751-.239.751-.532 0-.262-.01-1.135-.015-2.059-3.037.66-3.678-1.464-3.678-1.464-.497-1.263-1.213-1.6-1.213-1.6-.992-.678.075-.665.075-.665 1.096.078 1.673 1.127 1.673 1.127.974 1.669 2.553 1.186 3.176.907.099-.705.381-1.186.694-1.458-2.424-.276-4.979-1.213-4.979-5.402 0-1.194.426-2.168 1.124-2.931-.113-.276-.487-1.385.106-2.889 0 0 .917-.294 3.003 1.12a10.45 10.45 0 0 1 2.751-.371c.933.004 1.871.126 2.751.371 2.085-1.414 3-1.12 3-1.12.595 1.504.221 2.613.108 2.889.7.763 1.122 1.737 1.122 2.931 0 4.199-2.561 5.122-4.992 5.393.392.337.741 1.002.741 2.021 0 1.458-.014 2.635-.014 2.993 0 .292.198.637.756.529C19.852 20.979 23 16.867 23 12 23 5.923 18.077 1 12 1Z"/>
</svg>
